<?xml version="1.0" encoding="utf-8"?>
<!-- Designed by Vexels.com - 2016 All Rights Reserved - https://vexels.com/terms-and-conditions/  -->

<svg version="1.1" id="Capa_1" xmlns="http://www.w3.org/2000/svg" xmlns:xlink="http://www.w3.org/1999/xlink" x="0px" y="0px"
	 width="1200px" height="1200px" viewBox="0 0 1200 1200" enable-background="new 0 0 1200 1200" xml:space="preserve">
<g>
	<path fill="#1A71BA" d="M302.704,978.309l-0.044,0.025l0.044,0.025V978.309 M123.682,325.032v549.961v-0.061l179.022-103.326
		V428.293l-0.098,0.07L123.682,325.032"/>
	<path fill="#1A71BA" d="M123.682,874.993v0.021l178.931,103.346l0.047-0.025L123.682,874.993 M421.062,703.291l-118.358,68.315
		v206.702l118.358-68.316V703.291 M600.087,600.176v206.486l178.942-103.28l-0.092-0.051v0.02l-0.061,0.04L600.087,600.176"/>
	<polyline fill="#141493" points="302.704,771.606 123.682,874.933 123.682,874.993 302.66,978.334 302.704,978.309 
		302.704,771.606 	"/>
	<path fill="#DF208C" d="M1076.332,325.068l-179.023,103.33v343.299l0.088-0.051l178.936,103.331V325.068 M897.309,221.646v0.045
		l0.037-0.025L897.309,221.646"/>
	<path fill="#FEC338" d="M778.938,496.72l-178.85,103.235v0.091l178.85,103.285V496.72 M778.938,153.426L599.916,256.757v136.591
		l179.022-103.33V153.426 M599.916,50v0.05l0.047-0.025L599.916,50"/>
	<polyline fill="#1A5829" points="600.087,600.046 600.087,600.176 778.877,703.391 778.938,703.351 778.938,703.331 
		600.087,600.046 	"/>
	<path fill="#DF208C" d="M599.916,393.348L420.984,496.629l0.078,0.046v-0.025l0.071-0.04l178.783,103.225V393.348 M897.309,221.692
		l-118.371,68.326V496.72l118.371-68.321V221.692 M897.387,221.646l-0.041,0.02l178.986,103.34v0.062v-0.076L897.387,221.646"/>
	<polyline fill="#C2054D" points="897.346,221.667 897.309,221.692 897.309,428.398 1076.332,325.068 1076.332,325.007 
		897.346,221.667 	"/>
	<polyline fill="#DE1820" points="778.938,290.018 599.916,393.348 599.916,599.834 600.087,599.935 600.087,599.955 
		778.938,496.72 778.938,290.018 	"/>
	<path fill="#FEC642" d="M600.087,806.662l-179.025,103.33v136.642v-0.06l179.025-103.326V806.662 M421.062,496.675v206.616
		l178.854-103.226v-0.105L421.062,496.675"/>
	<polyline fill="#21934F" points="599.916,600.065 421.062,703.291 421.062,909.992 600.087,806.662 600.087,600.176 
		599.916,600.075 	"/>
	<polyline fill="#FC960E" points="600.087,599.955 599.996,600.005 599.916,599.96 599.916,600.075 600.017,600.005 
		600.087,600.046 600.087,599.955 	"/>
	<polyline fill="#1A430A" points="600.017,600.005 599.916,600.065 599.916,600.075 600.087,600.176 600.087,600.046 
		600.017,600.005 	"/>
	<polyline fill="#DE1923" points="421.133,496.609 421.062,496.649 421.062,496.675 599.916,599.96 599.916,599.834 
		421.133,496.609 	"/>
	<polyline fill="#DC1207" points="599.916,599.834 599.916,599.96 599.996,600.005 600.087,599.955 600.087,599.935 
		599.916,599.834 	"/>
	<polyline fill="#FEC642" points="600.087,1149.955 600.046,1149.976 600.087,1150 600.087,1149.955 	"/>
	<polyline fill="#FEC642" points="897.309,771.697 600.087,943.248 600.087,1149.955 1076.41,875.022 1076.332,874.978 
		1076.332,874.993 1076.26,875.032 897.309,771.717 897.309,771.697 	"/>
	<polyline fill="#DE1923" points="897.396,771.646 897.309,771.697 897.309,771.717 1076.26,875.032 1076.332,874.993 
		897.396,771.646 	"/>
	<polyline fill="#FEC642" points="421.062,1046.634 421.062,1046.654 600.006,1150 600.046,1149.976 421.062,1046.634 	"/>
	<polyline fill="#FD9B19" points="600.087,943.248 421.062,1046.574 421.062,1046.634 600.046,1149.976 600.087,1149.955 
		600.087,943.248 	"/>
	<path fill="#FEC338" d="M599.916,50.05L123.59,324.982l0.091,0.05v-0.025l0.061-0.039l178.961,103.325l297.211-171.536V50.05
		 M600.006,50l-0.044,0.025l178.975,103.341v0.06v-0.081L600.006,50"/>
	<polyline fill="#1A5829" points="123.743,324.968 123.682,325.007 123.682,325.032 302.606,428.363 302.704,428.309 
		302.704,428.293 123.743,324.968 	"/>
	<polyline fill="#FD950D" points="599.962,50.025 599.916,50.05 599.916,256.757 778.938,153.426 778.938,153.366 599.962,50.025 	
		"/>
</g>
</svg>
