<svg width="21" height="20" viewBox="0 0 21 20" fill="none" xmlns="http://www.w3.org/2000/svg">
<path d="M19.731 18.3109L16.021 14.6309C17.4611 12.8353 18.1585 10.5562 17.9698 8.2622C17.7811 5.9682 16.7207 3.83368 15.0065 2.29754C13.2924 0.761407 11.0548 -0.0595894 8.75395 0.00337096C6.45306 0.0663314 4.26374 1.00846 2.63616 2.63604C1.00858 4.26362 0.0664534 6.45294 0.00349303 8.75382C-0.0594674 11.0547 0.761529 13.2923 2.29767 15.0064C3.83381 16.7206 5.96832 17.781 8.26232 17.9697C10.5563 18.1584 12.8354 17.461 14.631 16.0209L18.311 19.7009C18.404 19.7946 18.5146 19.869 18.6364 19.9198C18.7583 19.9706 18.889 19.9967 19.021 19.9967C19.153 19.9967 19.2837 19.9706 19.4056 19.9198C19.5275 19.869 19.6381 19.7946 19.731 19.7009C19.9113 19.5144 20.012 19.2652 20.012 19.0059C20.012 18.7466 19.9113 18.4974 19.731 18.3109ZM9.02102 16.0209C7.63655 16.0209 6.28317 15.6104 5.13203 14.8412C3.98089 14.072 3.08368 12.9788 2.55387 11.6997C2.02405 10.4206 1.88543 9.01314 2.15553 7.65527C2.42562 6.2974 3.09231 5.05012 4.07128 4.07115C5.05024 3.09219 6.29752 2.4255 7.65539 2.1554C9.01326 1.88531 10.4207 2.02393 11.6998 2.55374C12.9789 3.08356 14.0721 3.98076 14.8413 5.13191C15.6105 6.28305 16.021 7.63643 16.021 9.0209C16.021 10.8774 15.2835 12.6579 13.9708 13.9706C12.658 15.2834 10.8775 16.0209 9.02102 16.0209Z" fill="#fff"/>
</svg>
